<svg id="Layer_1" data-name="Layer 1" xmlns="http://www.w3.org/2000/svg" viewBox="0 0 433.37 364.34"><defs><style>.cls-1{fill:#178aa5;}</style></defs><path class="cls-1" d="M596.56,364.22a109.41,109.41,0,0,1-137.76,0q-28.51-24.39-28.48-59h-39q0,48.35,39.93,82.58T527.67,422q56.46,0,96.4-34.22T664,305.2H625Q625,339.82,596.56,364.22Z" transform="translate(-308.64 -57.66)"/><path id="Union_21" data-name="Union 21" class="cls-1" d="M696.36,271.7,533.89,115.62a5.62,5.62,0,0,0-7.71,0L363.58,271.7H314.29a5.69,5.69,0,0,1-4-9.7l211-202.75a5.65,5.65,0,0,1,7.87,0l103.38,99.3V140.7a5.62,5.62,0,0,1,5.6-5.66h24a5.66,5.66,0,0,1,5.66,5.66v51.63L740.3,262a5.69,5.69,0,0,1-3.93,9.75Z" transform="translate(-308.64 -57.66)"/></svg>