<svg id="Layer_3" enable-background="new 0 0 64 64" height="512" viewBox="0 0 64 64" width="512"
  xmlns="http://www.w3.org/2000/svg">
  <g>
    <g>
      <path d="m25 32h11v2h-11z" fill="#8892a0" />
    </g>
    <path d="m50 2-8 6v8h16v-8z" fill="#f5b953" />
    <path d="m50 2-8 6v5.01c1.501.629 3.198.99 5 .99 4.953 0 9.139-2.679 10.517-6.362z" fill="#ffd266" />
    <path d="m18 39h2c1.105 0 2-.895 2-2v-15c0-2.209-1.791-4-4-4h-12c-2.209 0-4 1.791-4 4v15c0 1.105.895 2 2 2h2"
      fill="#8892a0" />
    <path d="m9 18 3 12 3-12" fill="#fff" />
    <g fill="#efbe9a">
      <path d="m12 22c2.209 0 4-1.791 4-4h-8c0 2.209 1.791 4 4 4z" />
      <path d="m6 39h-2c-1.105 0-2-.895-2-2v-2h4z" />
      <path d="m20 39h-2v-4h4v2c0 1.105-.895 2-2 2z" />
    </g>
    <path d="m6 35h12v23h-12z" fill="#073b4c" />
    <path d="m12 58h-6c-1.105 0-2 .895-2 2v2h8z" fill="#8892a0" />
    <path d="m12 58h6c1.105 0 2 .895 2 2v2h-8z" fill="#a8b0bc" />
    <path d="m8 10h-3c-1.105 0-2 .895-2 2 0 1.105.895 2 2 2h3" fill="#db9b7c" />
    <path d="m16 10h3c1.105 0 2 .895 2 2 0 1.105-.895 2-2 2h-3" fill="#db9b7c" />
    <path d="m17 6v7c0 2.761-2.239 5-5 5-2.761 0-5-2.239-5-5v-7" fill="#efbe9a" />
    <path d="m15 6c0 2.209-3.791 4-6 4h-4v-4c0-2.209 1.791-4 4-4h6c2.209 0 4 1.791 4 4v4c-2.209 0-4-1.791-4-4z"
      fill="#976947" />
    <g>
      <path d="m11 40h2v18h-2z" fill="#243242" />
    </g>
    <g>
      <path d="m61.4 11.8-11.4-8.55-11.4 8.55-1.2-1.6 12-9c.355-.268.844-.268 1.199 0l12 9z" fill="#976947" />
    </g>
    <path d="m48 16v-6h4v6" fill="#edf6f9" />
    <g>
      <path d="m36 58h-5c-.553 0-1-.447-1-1v-47c0-.553.447-1 1-1h5v2h-4v45h4z" fill="#073b4c" />
    </g>
    <path d="m5 26h2v9h-2z" fill="none" />
    <path d="m17 26h2v9h-2z" fill="#073b4c" />
    <path d="m5 26h2v9h-2z" fill="#073b4c" />
    <path d="m6 35h12v2h-12z" fill="#243242" />
    <path d="m18 18v5h-2l1 2-5 5-5-5 1-2h-2v-5h3l3 12 3-12z" fill="#073b4c" />
    <path d="m50 25-8 6v8h16v-8z" fill="#f5b953" />
    <path d="m50 25-8 6v5.01c1.501.629 3.198.99 5 .99 4.953 0 9.139-2.679 10.517-6.362z" fill="#ffd266" />
    <path d="m48 39v-6h4v6" fill="#edf6f9" />
    <g>
      <path d="m61.4 34.8-11.4-8.55-11.4 8.55-1.2-1.6 12-9c.355-.268.844-.268 1.199 0l12 9z" fill="#976947" />
    </g>
    <path d="m50 48-8 6v8h16v-8z" fill="#f5b953" />
    <path d="m50 48-8 6v5.01c1.501.629 3.198.99 5 .99 4.953 0 9.139-2.679 10.517-6.362z" fill="#ffd266" />
    <path d="m48 62v-6h4v6" fill="#edf6f9" />
    <g>
      <path d="m61.4 57.8-11.4-8.55-11.4 8.55-1.2-1.6 12-9c.355-.268.844-.268 1.199 0l12 9z" fill="#976947" />
    </g>
  </g>
</svg>