<svg height="464pt" viewBox="0 -1 464 464" width="464pt" xmlns="http://www.w3.org/2000/svg"><path d="m312 302.671875h-32c-4.414062 0-8 3.585937-8 8 0 4.417969 3.585938 8 8 8h32c4.414062 0 8-3.582031 8-8 0-4.414063-3.585938-8-8-8zm0 0"/><path d="m312 334.671875h-32c-4.414062 0-8 3.585937-8 8 0 4.417969 3.585938 8 8 8h32c4.414062 0 8-3.582031 8-8 0-4.414063-3.585938-8-8-8zm0 0"/><path d="m262.96875 359.550781c-9.640625 4.601563-20.175781 7.121094-30.96875 7.121094-22.441406 0-42.703125-10.199219-56-26.6875v18.6875h-16v-48c0-8.824219 7.175781-16 16-16h40c4.414062 0 8-3.582031 8-8 0-4.414063-3.585938-8-8-8h-48c-13.230469 0-24 10.769531-24 24v63.167969c0 9.046875 3.113281 17.921875 8.769531 24.984375l23.230469 29.039062v42.808594h104v-43.3125l12.28125-12.28125c7.550781-7.550781 11.71875-17.597656 11.71875-28.285156v-12.121094h-24c-6.65625 0-12.679688-2.726563-17.03125-7.121094zm0 0"/><path d="m248 120.558594-12.945312-25.886719h-6.109376l-12.945312 25.886719v120.203125l-5 2.023437c-10.070312 4.078125-18.695312 11.085938-24.871094 19.886719h29.871094c13.230469 0 24 10.769531 24 24s-10.769531 24-24 24h-37.496094c7.046875 23.664063 28.472656 40 53.496094 40 8.457031 0 16.703125-1.992187 24.238281-5.625-.078125-.789063-.238281-1.558594-.238281-2.375 0-6.167969 2.40625-11.742187 6.238281-16-3.839843-4.257813-6.238281-9.832031-6.238281-16s2.40625-11.742187 6.238281-16c-3.839843-4.257813-6.238281-9.832031-6.238281-16 0-10.511719 6.832031-19.367187 16.257812-22.609375-5.449218-5.664062-11.9375-10.308594-19.265624-13.277344l-4.992188-2.023437v-78.777344l-19.3125-19.3125 19.3125-19.3125zm0 0"/><path d="m312 270.671875h-32c-4.414062 0-8 3.585937-8 8 0 4.417969 3.585938 8 8 8h32c4.414062 0 8-3.582031 8-8 0-4.414063-3.585938-8-8-8zm0 0"/><path d="m48 169.296875v221.375h85.992188c-3.816407-7.695313-5.992188-16.183594-5.992188-24.832031v-63.167969c0-21.894531 17.695312-39.6875 39.527344-39.953125 6.976562-14.015625 18.441406-25.527344 32.472656-32.519531v-113.414063l19.054688-38.113281h25.890624l19.054688 38.113281v13.199219l-12.6875 12.6875 12.6875 12.6875v74.847656c11.167969 5.5625 20.640625 14.113281 27.617188 24.464844h20.382812c13.230469 0 24 10.769531 24 24 0 6.167969-2.40625 11.742187-6.238281 16 3.839843 4.257813 6.238281 9.832031 6.238281 16s-2.40625 11.742187-6.238281 16c3.839843 4.257813 6.238281 9.832031 6.238281 16 0 10.417969-6.710938 19.214844-16 22.527344v13.59375c0 4.046875-.464844 8.015625-1.296875 11.878906h97.296875v-221.375l-184-113.257813zm136-26.625h-32v96h-16v-112h48zm96-16h48v112h-16v-96h-32zm0 0"/><path d="m455.777344 134.265625-223.777344-134.265625-223.777344 134.265625c-5.070312 3.046875-8.222656 8.605469-8.222656 14.527344v.933593c0 9.34375 7.601562 16.945313 16.9375 16.945313 3.132812 0 6.207031-.871094 8.886719-2.511719l206.175781-126.902344 206.175781 126.902344c2.671875 1.640625 5.753907 2.511719 8.886719 2.511719 9.335938 0 16.9375-7.601563 16.9375-16.945313v-.933593c0-5.921875-3.152344-11.480469-8.222656-14.527344zm0 0"/></svg>