<svg height="512" viewBox="0 0 64 64" width="512" xmlns="http://www.w3.org/2000/svg"><g id="Filled_outline" data-name="Filled outline"><path d="m57 42h-13a4.662 4.662 0 0 1 -5-5v-15h18z" fill="#ffd782"/><path d="m49 22v6a3 3 0 0 1 0 6l8 3 4-5v-10z" fill="#394d5c"/><path d="m43 46-5 5-5-5-4 4 9 9v2h23v-15z" fill="#96c3f0"/><path d="m38 59v2h23v-5h-9v-10h-4v10z" fill="#195c85"/><path d="m47 10h6a8 8 0 0 1 8 8v4a0 0 0 0 1 0 0h-22a0 0 0 0 1 0 0v-4a8 8 0 0 1 8-8z" fill="#4f97d5"/><path d="m29 18h10a0 0 0 0 1 0 0v4a0 0 0 0 1 0 0h-10a2 2 0 0 1 -2-2 2 2 0 0 1 2-2z" fill="#50b4f8"/><path d="m33 46v-3a4 4 0 0 0 -4-4v3l-4 4 4 4z" fill="#ffd782"/><path d="m23 36v-3l-1-1a4.212 4.212 0 0 0 -6 0l-1 1a2.828 2.828 0 0 0 0 4l2 2h3l6 6 3-3z" fill="#cfdfe8"/><path d="m3 3h20a0 0 0 0 1 0 0v2a10 10 0 0 1 -10 10h-10a0 0 0 0 1 0 0v-12a0 0 0 0 1 0 0z" fill="#e6f1fd"/><path d="m3 15h8v4h-8z" fill="#aabece"/><path d="m3 19h6a0 0 0 0 1 0 0v10a4 4 0 0 1 -4 4h-2a0 0 0 0 1 0 0v-14a0 0 0 0 1 0 0z" fill="#4f97d5"/><path d="m3 19h6v4h-6z" fill="#e8e8e8"/><g fill="#50b4f8"><path d="m19 22a2 2 0 0 1 -2 2c-1.105 0-4-2-4-2s2.895-2 4-2a2 2 0 0 1 2 2z"/><path d="m5 43a2 2 0 0 1 -2-2c0-1.1 2-4 2-4s2 2.9 2 4a2 2 0 0 1 -2 2z"/><path d="m11 48a2 2 0 0 1 -2-2c0-1.1 2-4 2-4s2 2.9 2 4a2 2 0 0 1 -2 2z"/><path d="m57 18h4a0 0 0 0 1 0 0v4a0 0 0 0 1 0 0h-4a2 2 0 0 1 -2-2 2 2 0 0 1 2-2z"/></g><path d="m42 27h2v2h-2z"/><path d="m61 45h-18a1 1 0 0 0 -.707.293l-4.293 4.293-4-4v-2.586a5.006 5.006 0 0 0 -5-5 1 1 0 0 0 -1 1v.586l-4-4v-2.586a1 1 0 0 0 -.293-.707l-1-1a5.21 5.21 0 0 0 -7.414 0l-1 1a3.832 3.832 0 0 0 0 5.414l2 2a1 1 0 0 0 .707.293h2.586l5 5-.293.293a1 1 0 0 0 0 1.414l12.707 12.707v1.586a1 1 0 0 0 1 1h23a1 1 0 0 0 1-1v-15a1 1 0 0 0 -1-1zm-40.293-6.707a1 1 0 0 0 -.707-.293h-2.586l-1.707-1.707a1.82 1.82 0 0 1 -.187-2.359l2.773 2.773 1.414-1.414-2.771-2.771a3.28 3.28 0 0 1 4.357.185l.707.707v2.586a1 1 0 0 0 .293.707l5.293 5.293-1.586 1.586zm5.707 7.707 3.293-3.293a.989.989 0 0 0 .217-.327 1 1 0 0 0 .076-.38v-1.829a3.006 3.006 0 0 1 2 2.829v2.586l-3 3zm4 4 2.586-2.586 4.293 4.293a1 1 0 0 0 1.414 0l4.707-4.707h3.586v8.256l-5.488 1.644 3.2-3.195-1.414-1.414-5.298 5.295zm29.586 10h-21v-.256l9.287-2.786a1 1 0 0 0 .713-.958v-9h2v9a1 1 0 0 0 1 1h8zm0-5h-7v-8h7z"/><path d="m53 9h-6a9.01 9.01 0 0 0 -8.941 8h-9.059a3 3 0 0 0 0 6h9v14a5.68 5.68 0 0 0 6 6h13a1 1 0 0 0 1-1v-4.649l3.781-4.726a1 1 0 0 0 .219-.625v-14a9.01 9.01 0 0 0 -9-9zm-15 12h-9a1 1 0 0 1 0-2h9zm18 20h-12a3.608 3.608 0 0 1 -3.951-3.365l5.058-1.686-.632-1.9-4.475 1.494v-12.543h8v5a1 1 0 0 0 1 1 2 2 0 0 1 0 4 1 1 0 0 0 -.352 1.937l7.352 2.756zm0-5.443-4.3-1.611a4 4 0 0 0 -1.7-6.82v-4.126h6zm4-3.908-2 2.5v-11.149h2zm0-10.649h-3a1 1 0 0 1 0-2h3zm-3-4a3 3 0 0 0 -3 3 2.966 2.966 0 0 0 .184 1h-14.184v-3a7.026 7.026 0 0 1 .08-1h4.92v-2h-4.315a7 7 0 0 1 6.315-4h6a7 7 0 0 1 6.92 6z"/><path d="m3 34h2a5.006 5.006 0 0 0 5-5v-9h1a1 1 0 0 0 1-1v-3h1a11.013 11.013 0 0 0 11-11v-2a1 1 0 0 0 -1-1h-20a1 1 0 0 0 -1 1v30a1 1 0 0 0 1 1zm1-30h18v1a9.01 9.01 0 0 1 -9 9h-9zm0 12h6v2h-6zm0 4h4v2h-4zm0 4h4v5a3 3 0 0 1 -3 3h-1z"/><path d="m20 22a3 3 0 0 0 -3-3c-1.278 0-3.62 1.522-4.568 2.177a1 1 0 0 0 0 1.646c.948.655 3.29 2.177 4.568 2.177a3 3 0 0 0 3-3zm-3-1a1 1 0 0 1 0 2 7.457 7.457 0 0 1 -2.147-1 7.467 7.467 0 0 1 2.147-1z"/><path d="m5 44a3 3 0 0 0 3-3c0-1.278-1.522-3.621-2.177-4.568a1.038 1.038 0 0 0 -1.646 0c-.655.947-2.177 3.29-2.177 4.568a3 3 0 0 0 3 3zm0-5.146a7.467 7.467 0 0 1 1 2.146 1 1 0 0 1 -2 0 7.457 7.457 0 0 1 1-2.146z"/><path d="m10.177 41.432c-.655.947-2.177 3.29-2.177 4.568a3 3 0 0 0 6 0c0-1.278-1.522-3.621-2.177-4.568a1.038 1.038 0 0 0 -1.646 0zm.823 5.568a1 1 0 0 1 -1-1 7.457 7.457 0 0 1 1-2.147 7.467 7.467 0 0 1 1 2.147 1 1 0 0 1 -1 1z"/></g></svg>